<?xml version="1.0" encoding="UTF-8"?><svg id="Calque_2" xmlns="http://www.w3.org/2000/svg" viewBox="0 0 88.05 87.9"><g id="Calque_1-2"><path d="M47.45,36.35v.15c.03,1.43.55,2.65,1.55,3.65,1.07,1.07,2.35,1.6,3.85,1.6s2.77-.53,3.8-1.6c1.03-1,1.57-2.22,1.6-3.65v-.15c0-1.5-.53-2.78-1.6-3.85-1.03-1.03-2.3-1.55-3.8-1.55-1.5,0-2.78.52-3.85,1.55-1.03,1.07-1.55,2.35-1.55,3.85M34.6,32.1c-1.1,1.1-1.65,2.43-1.65,4,0,.5.05.97.15,1.4.23.97.73,1.83,1.5,2.6,1.1,1.1,2.43,1.65,4,1.65s2.9-.55,4-1.65c.77-.77,1.27-1.63,1.5-2.6l.15-1.4c0-1.57-.55-2.9-1.65-4-1.1-1.1-2.43-1.65-4-1.65-1.57,0-2.9.55-4,1.65M72,15.9v26.7h-3.85l-.45.05c-11.83.67-19.45,5.8-22.85,15.4l.05-.1c-1.57,3.67-2.33,8.13-2.3,13.4v.55h-26.6v-9.15c1.37-30.5,18.12-46.12,50.25-46.85h5.75M33.95,51.75c0-.77-.27-1.42-.8-1.95-.53-.53-1.18-.8-1.95-.8s-1.42.27-1.95.8c-.53.53-.8,1.18-.8,1.95s.27,1.42.8,1.95c.53.53,1.18.8,1.95.8s1.42-.27,1.95-.8c.53-.53.8-1.18.8-1.95" fill="#1ea7e1" stroke-width="0"/><path d="M33.95,51.75c0,.77-.27,1.42-.8,1.95-.53.53-1.18.8-1.95.8s-1.42-.27-1.95-.8c-.53-.53-.8-1.18-.8-1.95s.27-1.42.8-1.95c.53-.53,1.18-.8,1.95-.8s1.42.27,1.95.8c.53.53.8,1.18.8,1.95M34.6,32.1c1.1-1.1,2.43-1.65,4-1.65,1.57,0,2.9.55,4,1.65,1.1,1.1,1.65,2.43,1.65,4l-.15,1.4c-.23.97-.73,1.83-1.5,2.6-1.1,1.1-2.43,1.65-4,1.65s-2.9-.55-4-1.65c-.77-.77-1.27-1.63-1.5-2.6-.1-.43-.15-.9-.15-1.4,0-1.57.55-2.9,1.65-4M47.45,36.35c0-1.5.52-2.78,1.55-3.85,1.07-1.03,2.35-1.55,3.85-1.55,1.5,0,2.77.52,3.8,1.55,1.07,1.07,1.6,2.35,1.6,3.85v.15c-.03,1.43-.57,2.65-1.6,3.65-1.03,1.07-2.3,1.6-3.8,1.6s-2.78-.53-3.85-1.6c-1-1-1.52-2.22-1.55-3.65v-.15" fill="#2cb8f3" stroke-width="0"/><path d="M88.05,4v4l-.05,38.6v8c0,1.1-.38,2.05-1.15,2.85-.8.77-1.75,1.15-2.85,1.15h-12c-1.1,0-2.03-.38-2.8-1.15-.8-.8-1.2-1.73-1.2-2.8-6.03.43-10.02,3-11.95,7.7v.05c-.63,1.6-1.07,3.43-1.3,5.5,1.03.03,1.93.43,2.7,1.2.77.77,1.15,1.7,1.15,2.8v12c0,1.1-.38,2.05-1.15,2.85-.8.77-1.75,1.15-2.85,1.15H4c-1.1,0-2.03-.38-2.8-1.15-.8-.8-1.2-1.75-1.2-2.85v-12.05c0-1.1.4-2.03,1.2-2.8.77-.8,1.7-1.2,2.8-1.2v-5.6C5.5,24.22,26.23,4.77,66.2,3.9h1.8c.03-1.07.43-1.97,1.2-2.7.77-.8,1.7-1.2,2.8-1.2h12.05c1.1,0,2.05.4,2.85,1.2s1.15,1.7,1.15,2.8M72,50.6v4h12v-8l.05-38.6v-4h-12.05v3.9h-5.75C28.88,8.7,9.47,26.87,8,62.4v9.45h-4v12.05h50.6v-12h-4c-.07-4.33.5-8,1.7-11,2.47-6.4,7.75-9.83,15.85-10.3h3.85" fill="#527914" stroke-width="0"/><path d="M72,11.9v4h-5.75c-32.13.73-48.88,16.35-50.25,46.85v9.1h-8v-5.45C9.47,30.87,28.88,12.7,66.25,11.9h5.75M72,42.6v8h-3.85c-8.1.47-13.38,3.9-15.85,10.3-1.2,3-1.77,6.67-1.7,11h-8v-.55c-.03-5.27.73-9.73,2.3-13.4l-.05.1c3.4-9.6,11.02-14.73,22.85-15.4l.45-.05h3.85" fill="#a1e03d" stroke-width="0"/><path d="M72,42.6V4h12.05v4l-.05,38.6v8h-12v-12M42.6,71.9h12v12H4v-12.05h12v.05h26.6" fill="#80be1f" stroke-width="0"/><path d="M72,7.9v4h-5.75c-37.37.8-56.78,18.97-58.25,54.5v-4C9.47,26.87,28.88,8.7,66.25,7.9h5.75" fill="#b2f04f" stroke-width="0"/></g></svg>