<?xml version="1.0" encoding="UTF-8"?><svg id="Calque_2" xmlns="http://www.w3.org/2000/svg" viewBox="0 0 58.6 117.55"><g id="Calque_1-2"><path d="M1.2,1.2c.77-.8,1.7-1.2,2.8-1.2l50.6.05c1.1,0,2.05.4,2.85,1.2.77.77,1.15,1.7,1.15,2.8v12c0,1.1-.38,2.05-1.15,2.85-.8.77-1.75,1.15-2.85,1.15v77.5c1.1,0,2.05.4,2.85,1.2.77.77,1.15,1.7,1.15,2.8v12c0,1.1-.38,2.05-1.15,2.85-.8.77-1.75,1.15-2.85,1.15H4c-1.1,0-2.03-.38-2.8-1.15-.8-.8-1.2-1.75-1.2-2.85v-12.05c0-1.1.4-2.03,1.2-2.8.77-.8,1.7-1.2,2.8-1.2h.05V20.05h-.05c-1.1,0-2.03-.38-2.8-1.15-.8-.8-1.2-1.75-1.2-2.85V4C0,2.9.4,1.97,1.2,1.2M50.6,16.05h4V4.05l-50.6-.05v12.05h4.05v85.45h-4.05v12.05h50.6v-12h-4V16.05" fill="#527914" stroke-width="0"/><path d="M50.6,16.05H4V4l50.6.05v12h-4M50.6,101.55h4v12H4v-12.05h12.05l13.3.05h21.25" fill="#80be1f" stroke-width="0"/><path d="M50.6,101.55h-8V16.05h8v85.5M8.05,16.05h8v85.45h-8V16.05" fill="#a1e03d" stroke-width="0"/><path d="M16.05,16.05h26.55v85.5h-13.25l-13.3-.05V16.05M26,65.25c1.07,1.07,2.35,1.6,3.85,1.6s2.77-.53,3.8-1.6c1.03-1,1.57-2.22,1.6-3.65v-.15c0-1.5-.53-2.78-1.6-3.85-1.03-1.03-2.3-1.55-3.8-1.55-1.5,0-2.78.52-3.85,1.55-1.03,1.07-1.55,2.35-1.55,3.85v.15c.03,1.43.55,2.65,1.55,3.65M24.65,49.9c-.53-.53-1.18-.8-1.95-.8s-1.42.27-1.95.8c-.53.53-.8,1.18-.8,1.95s.27,1.42.8,1.95c.53.53,1.18.8,1.95.8s1.42-.27,1.95-.8c.53-.53.8-1.18.8-1.95s-.27-1.42-.8-1.95M24.6,37.6c.23.97.73,1.83,1.5,2.6,1.1,1.1,2.43,1.65,4,1.65s2.9-.55,4-1.65c.77-.77,1.27-1.63,1.5-2.6l.15-1.4c0-1.57-.55-2.9-1.65-4-1.1-1.1-2.43-1.65-4-1.65-1.57,0-2.9.55-4,1.65-1.1,1.1-1.65,2.43-1.65,4l.15,1.4" fill="#1ea7e1" stroke-width="0"/><path d="M24.6,37.6l-.15-1.4c0-1.57.55-2.9,1.65-4,1.1-1.1,2.43-1.65,4-1.65,1.57,0,2.9.55,4,1.65,1.1,1.1,1.65,2.43,1.65,4l-.15,1.4c-.23.97-.73,1.83-1.5,2.6-1.1,1.1-2.43,1.65-4,1.65s-2.9-.55-4-1.65c-.77-.77-1.27-1.63-1.5-2.6M24.65,49.9c.53.53.8,1.18.8,1.95s-.27,1.42-.8,1.95c-.53.53-1.18.8-1.95.8s-1.42-.27-1.95-.8c-.53-.53-.8-1.18-.8-1.95s.27-1.42.8-1.95c.53-.53,1.18-.8,1.95-.8s1.42.27,1.95.8M26,65.25c-1-1-1.52-2.22-1.55-3.65v-.15c0-1.5.52-2.78,1.55-3.85,1.07-1.03,2.35-1.55,3.85-1.55,1.5,0,2.77.52,3.8,1.55,1.07,1.07,1.6,2.35,1.6,3.85v.15c-.03,1.43-.57,2.65-1.6,3.65-1.03,1.07-2.3,1.6-3.8,1.6s-2.78-.53-3.85-1.6" fill="#2cb8f3" stroke-width="0"/></g></svg>