<?xml version="1.0" encoding="UTF-8"?><svg id="Calque_2" xmlns="http://www.w3.org/2000/svg" viewBox="0 0 117.55 58.6"><g id="Calque_1-2"><path d="M18.9,1.2c.77.77,1.15,1.7,1.15,2.8v.05h77.45v-.05c0-1.1.4-2.03,1.2-2.8.77-.8,1.7-1.2,2.8-1.2h12.05c1.1,0,2.05.4,2.85,1.2.77.77,1.15,1.7,1.15,2.8l-.05,50.6c0,1.1-.38,2.05-1.15,2.85-.8.77-1.75,1.15-2.85,1.15h-12c-1.1,0-2.03-.38-2.8-1.15-.8-.8-1.2-1.75-1.2-2.85H20c0,1.1-.38,2.05-1.15,2.85-.8.77-1.75,1.15-2.85,1.15H4c-1.1,0-2.03-.38-2.8-1.15-.8-.8-1.2-1.75-1.2-2.85V4C0,2.9.4,1.97,1.2,1.2c.77-.8,1.7-1.2,2.8-1.2h12.05c1.1,0,2.05.4,2.85,1.2M16.05,8.05v-4.05H4v50.6h12v-4h85.5v4h12l.05-50.6h-12.05v4.05H16.05" fill="#527914" stroke-width="0"/><path d="M16.05,8.05v34.55l-.05,2v10H4V4h12.05v4.05M101.5,16.05V4h12.05l-.05,50.6h-12V16.05" fill="#80be1f" stroke-width="0"/><path d="M16.05,12.05v-4h85.45v4H16.05" fill="#b2f04f" stroke-width="0"/><path d="M16.05,12.05h85.45v4H16.05v-4M16,50.6v-6l.05-2h85.45v8H16" fill="#a1e03d" stroke-width="0"/><path d="M16.05,42.6v-26.55h85.45v26.55H16.05M56.2,22.3c-.77,0-1.42.27-1.95.8-.53.53-.8,1.18-.8,1.95s.27,1.42.8,1.95,1.18.8,1.95.8c.77,0,1.42-.27,1.95-.8.53-.53.8-1.18.8-1.95s-.27-1.42-.8-1.95c-.53-.53-1.18-.8-1.95-.8M37.95,25.15v.15c.03,1.43.55,2.65,1.55,3.65,1.07,1.07,2.35,1.6,3.85,1.6,1.17,0,2.2-.32,3.1-.95l.7-.65c1.03-1,1.57-2.22,1.6-3.65v-.15c0-1.5-.53-2.78-1.6-3.85l-.7-.6c-.9-.63-1.93-.95-3.1-.95-1.5,0-2.78.52-3.85,1.55-1.03,1.07-1.55,2.35-1.55,3.85M85.2,31.85c-.53.53-.8,1.18-.8,1.95s.27,1.42.8,1.95,1.18.8,1.95.8c.77,0,1.42-.27,1.95-.8.53-.53.8-1.18.8-1.95s-.27-1.42-.8-1.95c-.53-.53-1.18-.8-1.95-.8-.77,0-1.42.27-1.95.8" fill="#1ea7e1" stroke-width="0"/><path d="M85.2,31.85c.53-.53,1.18-.8,1.95-.8.77,0,1.42.27,1.95.8.53.53.8,1.18.8,1.95s-.27,1.42-.8,1.95c-.53.53-1.18.8-1.95.8-.77,0-1.42-.27-1.95-.8s-.8-1.18-.8-1.95.27-1.42.8-1.95M37.95,25.15c0-1.5.52-2.78,1.55-3.85,1.07-1.03,2.35-1.55,3.85-1.55,1.17,0,2.2.32,3.1.95l.7.6c1.07,1.07,1.6,2.35,1.6,3.85v.15c-.03,1.43-.57,2.65-1.6,3.65l-.7.65c-.9.63-1.93.95-3.1.95-1.5,0-2.78-.53-3.85-1.6-1-1-1.52-2.22-1.55-3.65v-.15M56.2,22.3c.77,0,1.42.27,1.95.8.53.53.8,1.18.8,1.95s-.27,1.42-.8,1.95c-.53.53-1.18.8-1.95.8-.77,0-1.42-.27-1.95-.8s-.8-1.18-.8-1.95.27-1.42.8-1.95c.53-.53,1.18-.8,1.95-.8" fill="#2cb8f3" stroke-width="0"/></g></svg>