<?xml version="1.0" encoding="UTF-8"?><svg id="Calque_2" xmlns="http://www.w3.org/2000/svg" viewBox="0 0 117.55 88.05"><g id="Calque_1-2"><path d="M117.55,4l-.05,50.6c0,1.1-.38,2.05-1.15,2.85-.8.77-1.75,1.15-2.85,1.15h-12c-1.1,0-2.03-.38-2.8-1.15-.8-.8-1.2-1.75-1.2-2.85h-14.35c.47,3.63.75,7.48.85,11.55v1.85c1.07.03,1.98.43,2.75,1.2s1.15,1.7,1.15,2.8v12.05c0,1.1-.38,2.05-1.15,2.85-.8.77-1.75,1.15-2.85,1.15h-4l-38.6-.05h-8c-1.1,0-2.03-.38-2.8-1.15-.8-.8-1.2-1.75-1.2-2.85v-12c0-1.1.4-2.03,1.2-2.8.77-.8,1.7-1.2,2.8-1.2-.47-6.03-3.05-10.02-7.75-11.95-1.63-.63-3.48-1.07-5.55-1.3-.03,1.03-.42,1.93-1.15,2.7-.8.77-1.75,1.15-2.85,1.15H4c-1.1,0-2.03-.38-2.8-1.15-.8-.8-1.2-1.75-1.2-2.85V4l.05-.65c.13-.83.52-1.55,1.15-2.15.77-.8,1.7-1.2,2.8-1.2h12.05c1.1,0,2.05.4,2.85,1.2.77.77,1.15,1.7,1.15,2.8h5.45l1.1.05h70.9v-.05c0-1.1.4-2.03,1.2-2.8.77-.8,1.7-1.2,2.8-1.2h12.05c1.1,0,2.05.4,2.85,1.2.77.77,1.15,1.7,1.15,2.8M16.05,8v-4H4v50.6h12v-4h1.7c3.6.1,6.7.67,9.3,1.7,6.4,2.47,9.83,7.75,10.3,15.85v3.85h-4v12h8l38.6.05h4v-12.05h-3.9v-5.75c-.13-5.63-.65-10.85-1.55-15.65h23.05v4h12l.05-50.6h-12.05v4.05H26.6l-1.1-.05h-9.45" fill="#527914" stroke-width="0"/><path d="M16.05,8v34.6l-.05,2v10H4V4h12.05v4M101.5,12.05V4h12.05l-.05,50.6h-12V12.05M72,72h11.9v12.05h-4l-38.6-.05h-8v-12h38.7" fill="#80be1f" stroke-width="0"/><path d="M72,72v-5.75c-.13-5.1-.6-9.82-1.4-14.15-.3-1.6-.13-3.13.5-4.6.6-1.47,1.58-2.65,2.95-3.55,1.33-.9,2.8-1.35,4.4-1.35h23.05v8h-23.9c1.43,5.87,2.23,12.42,2.4,19.65v1.75h-8M16,50.6v-6l.05-2h1.9c4.63.13,8.63.9,12,2.3l-.05-.05c9.57,3.4,14.7,11.02,15.4,22.85v4.3h-8v-3.85c-.47-8.1-3.9-13.38-10.3-15.85-2.6-1.03-5.7-1.6-9.3-1.7h-1.7M16.05,16v-3.95h85.45v4H25.9l-.4-.05h-9.45" fill="#a1e03d" stroke-width="0"/><path d="M16.05,12.05v-4.05h9.45l1.1.05h74.9v4H16.05M80,70.25c-.17-7.23-.97-13.78-2.4-19.65h.85c.9,4.8,1.42,10.02,1.55,15.65v4" fill="#b2f04f" stroke-width="0"/><path d="M16.05,42.6v-26.6h9.45l.4.05h75.6v26.55h-23.05c-1.6,0-3.07.45-4.4,1.35-1.37.9-2.35,2.08-2.95,3.55-.63,1.47-.8,3-.5,4.6.8,4.33,1.27,9.05,1.4,14.15v5.75h-26.7v-4.3c-.7-11.83-5.83-19.45-15.4-22.85l.05.05c-3.37-1.4-7.37-2.17-12-2.3h-1.9M28.85,31.35c-.53-.53-1.17-.8-1.9-.8-.77-.03-1.43.23-2,.8-.53.53-.78,1.18-.75,1.95-.03.77.22,1.42.75,1.95.57.53,1.23.8,2,.8.73,0,1.37-.27,1.9-.8.57-.57.85-1.22.85-1.95s-.28-1.42-.85-1.95M71.9,22.5c0-.77-.28-1.42-.85-1.95-.53-.53-1.17-.8-1.9-.8-.77-.03-1.43.23-2,.8-.53.53-.78,1.18-.75,1.95-.03.77.22,1.42.75,1.95.57.53,1.23.8,2,.8s1.37-.27,1.9-.8c.57-.57.85-1.22.85-1.95M48.65,30.9c.03-1.57-.5-2.92-1.6-4.05-1.13-1.1-2.48-1.63-4.05-1.6-1.53-.03-2.85.5-3.95,1.6l-.9,1.15c-.5.83-.77,1.8-.8,2.9,0,1.53.57,2.85,1.7,3.95,1.1,1.13,2.42,1.7,3.95,1.7,1.1-.03,2.07-.3,2.9-.8l1.15-.9c1.1-1.1,1.63-2.42,1.6-3.95M79.95,27.8c-.77-.03-1.43.23-2,.8-.53.53-.78,1.18-.75,1.95-.03.77.22,1.42.75,1.95.57.53,1.23.8,2,.8.73,0,1.37-.27,1.9-.8.57-.57.85-1.22.85-1.95s-.28-1.42-.85-1.95c-.53-.53-1.17-.8-1.9-.8" fill="#1ea7e1" stroke-width="0"/><path d="M79.95,27.8c.73,0,1.37.27,1.9.8.57.53.85,1.18.85,1.95s-.28,1.38-.85,1.95c-.53.53-1.17.8-1.9.8-.77,0-1.43-.27-2-.8-.53-.53-.78-1.18-.75-1.95-.03-.77.22-1.42.75-1.95.57-.57,1.23-.83,2-.8M28.85,31.35c.57.53.85,1.18.85,1.95s-.28,1.38-.85,1.95c-.53.53-1.17.8-1.9.8-.77,0-1.43-.27-2-.8-.53-.53-.78-1.18-.75-1.95-.03-.77.22-1.42.75-1.95.57-.57,1.23-.83,2-.8.73,0,1.37.27,1.9.8M48.65,30.9c.03,1.53-.5,2.85-1.6,3.95l-1.15.9c-.83.5-1.8.77-2.9.8-1.53,0-2.85-.57-3.95-1.7-1.13-1.1-1.7-2.42-1.7-3.95.03-1.1.3-2.07.8-2.9l.9-1.15c1.1-1.1,2.42-1.63,3.95-1.6,1.57-.03,2.92.5,4.05,1.6,1.1,1.13,1.63,2.48,1.6,4.05M71.9,22.5c0,.73-.28,1.38-.85,1.95-.53.53-1.17.8-1.9.8s-1.43-.27-2-.8c-.53-.53-.78-1.18-.75-1.95-.03-.77.22-1.42.75-1.95.57-.57,1.23-.83,2-.8.73,0,1.37.27,1.9.8.57.53.85,1.18.85,1.95" fill="#2cb8f3" stroke-width="0"/></g></svg>