<?xml version="1.0" encoding="UTF-8"?><svg id="Calque_2" xmlns="http://www.w3.org/2000/svg" viewBox="0 0 117.55 87.9"><g id="Calque_1-2"><path d="M101.45,29.3h12.1c1.1,0,2.05.4,2.85,1.2.77.77,1.15,1.7,1.15,2.8l-.05,50.6c0,1.1-.38,2.05-1.15,2.85-.8.77-1.75,1.15-2.85,1.15h-12.05c-1.1,0-2.03-.38-2.8-1.15-.77-.77-1.17-1.68-1.2-2.75h-1.85l-2.8-.1H20c0,1.1-.38,2.05-1.15,2.85-.8.77-1.75,1.15-2.85,1.15H4c-1.1,0-2.03-.38-2.8-1.15-.8-.8-1.2-1.75-1.2-2.85v-50.6c0-1.1.4-2.03,1.2-2.8.77-.8,1.7-1.2,2.8-1.2h12.05c1.1,0,2.05.4,2.85,1.2.77.77,1.15,1.7,1.15,2.8v.05h14.05c-.33-2.47-.55-5.03-.65-7.7v-5.6c-1.1,0-2.03-.38-2.8-1.15-.8-.8-1.2-1.75-1.2-2.85V4c0-1.1.4-2.03,1.2-2.8.77-.8,1.7-1.2,2.8-1.2h50.6c1.1,0,2.05.4,2.85,1.2.77.77,1.15,1.7,1.15,2.8v12c0,1.1-.38,2.05-1.15,2.85-.77.73-1.67,1.12-2.7,1.15.23,2.07.67,3.92,1.3,5.55,1.93,4.7,5.92,7.28,11.95,7.75,0-1.1.4-2.03,1.2-2.8.77-.8,1.7-1.2,2.8-1.2M101.45,37.3h-3.85c-8.1-.47-13.38-3.9-15.85-10.3-1.03-2.6-1.6-5.7-1.7-9.3v-1.7h4V4h-50.6v12.05h4v9.45c.17,4.2.6,8.15,1.3,11.85h-22.7v-4.05H4v50.6h12v-4h76.8l2.9.1h5.75v3.9h12.05l.05-50.6h-12.1v4" fill="#527914" stroke-width="0"/><path d="M101.45,37.3v4h-3.85c-4.8-.27-8.6-1.58-11.4-3.95-1.97-1.63-3.45-3.75-4.45-6.35-1.2-3-1.77-6.67-1.7-11v-2.3c.1,3.6.67,6.7,1.7,9.3,2.47,6.4,7.75,9.83,15.85,10.3h3.85M16.05,37.35h22.7l.85,4h-23.55v-4" fill="#b2f04f" stroke-width="0"/><path d="M16.05,37.35v8l-.05,26.55v12H4v-50.6h12.05v4.05M101.45,41.3v-8h12.1l-.05,50.6h-12.05v-42.6M37.45,16.05h-4V4h50.6v12h-12l-26.6.05h-8" fill="#80be1f" stroke-width="0"/><path d="M37.45,16.05h8v9.15c.13,3.77.52,7.33,1.15,10.7.3,1.57.15,3.08-.45,4.55-.63,1.47-1.62,2.65-2.95,3.55-1.37.9-2.85,1.35-4.45,1.35h-22.7v-4h23.55l-.85-4c-.7-3.7-1.13-7.65-1.3-11.85v-9.45M80.05,17.7v2.3c-.07,4.33.5,8,1.7,11,1,2.6,2.48,4.72,4.45,6.35,2.8,2.37,6.6,3.68,11.4,3.95h3.85v4h-4.3c-11.83-.7-19.45-5.83-22.85-15.4l.05.05c-1.4-3.37-2.17-7.37-2.3-12v-1.95h8v1.7M101.45,72v8h-5.75l-2.9-.1H16v-8h77.1l2.9.1h5.45" fill="#a1e03d" stroke-width="0"/><path d="M101.45,72h-5.45l-2.9-.1H16l.05-26.55h22.7c1.6,0,3.08-.45,4.45-1.35,1.33-.9,2.32-2.08,2.95-3.55.6-1.47.75-2.98.45-4.55-.63-3.37-1.02-6.93-1.15-10.7v-9.15l26.6-.05v1.95c.13,4.63.9,8.63,2.3,12l-.05-.05c3.4,9.57,11.02,14.7,22.85,15.4h4.3v26.7M62.1,31.15l-.1.1c-1.03,1.07-1.53,2.3-1.5,3.7-.03,1.53.48,2.83,1.55,3.9,1.07,1.07,2.35,1.58,3.85,1.55,1.43.03,2.67-.47,3.7-1.5l.1-.1c1.07-1.07,1.6-2.33,1.6-3.8s-.53-2.73-1.6-3.8c-1.07-1.07-2.33-1.62-3.8-1.65-1.47,0-2.73.53-3.8,1.6M43.5,48.45c-1.03,1.07-1.53,2.3-1.5,3.7-.03,1.53.48,2.83,1.55,3.9,1.07,1.07,2.35,1.58,3.85,1.55,1.43.03,2.67-.47,3.7-1.5l.1-.1c1.07-1.07,1.6-2.33,1.6-3.8s-.53-2.73-1.6-3.8-2.33-1.62-3.8-1.65c-1.47,0-2.73.53-3.8,1.6l-.1.1M32.55,52.85c-.53.53-.78,1.18-.75,1.95-.03.77.22,1.42.75,1.95.57.53,1.23.8,2,.8s1.37-.27,1.9-.8c.57-.57.85-1.22.85-1.95s-.28-1.42-.85-1.95c-.53-.53-1.17-.8-1.9-.8-.77-.03-1.43.23-2,.8" fill="#1ea7e1" stroke-width="0"/><path d="M32.55,52.85c.57-.57,1.23-.83,2-.8.73,0,1.37.27,1.9.8.57.53.85,1.18.85,1.95s-.28,1.38-.85,1.95c-.53.53-1.17.8-1.9.8s-1.43-.27-2-.8c-.53-.53-.78-1.18-.75-1.95-.03-.77.22-1.42.75-1.95M62.1,31.15c1.07-1.07,2.33-1.6,3.8-1.6,1.47.03,2.73.58,3.8,1.65,1.07,1.07,1.6,2.33,1.6,3.8s-.53,2.73-1.6,3.8l-.1.1c-1.03,1.03-2.27,1.53-3.7,1.5-1.5.03-2.78-.48-3.85-1.55-1.07-1.07-1.58-2.37-1.55-3.9-.03-1.4.47-2.63,1.5-3.7l.1-.1M43.5,48.45l.1-.1c1.07-1.07,2.33-1.6,3.8-1.6,1.47.03,2.73.58,3.8,1.65s1.6,2.33,1.6,3.8-.53,2.73-1.6,3.8l-.1.1c-1.03,1.03-2.27,1.53-3.7,1.5-1.5.03-2.78-.48-3.85-1.55-1.07-1.07-1.58-2.37-1.55-3.9-.03-1.4.47-2.63,1.5-3.7" fill="#2cb8f3" stroke-width="0"/></g></svg>