<?xml version="1.0" encoding="UTF-8"?><svg id="Calque_2" xmlns="http://www.w3.org/2000/svg" viewBox="0 0 117.55 117.55"><g id="Calque_1-2"><path d="M18.9,30.65c.77.77,1.15,1.7,1.15,2.8v.05h13.45v-13.45h-.05c-1.1,0-2.03-.38-2.8-1.15-.8-.8-1.2-1.75-1.2-2.85V4c0-1.1.4-2.03,1.2-2.8.77-.8,1.7-1.2,2.8-1.2l50.6.05c1.1,0,2.05.4,2.85,1.2.77.77,1.15,1.7,1.15,2.8v12c0,1.1-.38,2.05-1.15,2.85-.8.77-1.75,1.15-2.85,1.15v13.45h13.45v-.05c0-1.1.4-2.03,1.2-2.8.77-.8,1.7-1.2,2.8-1.2h12.05c1.1,0,2.05.4,2.85,1.2.77.77,1.15,1.7,1.15,2.8l-.05,50.6c0,1.1-.38,2.05-1.15,2.85-.8.77-1.75,1.15-2.85,1.15h-12c-1.1,0-2.03-.38-2.8-1.15-.8-.8-1.2-1.75-1.2-2.85h-13.45v13.5c1.1,0,2.05.4,2.85,1.2.77.77,1.15,1.7,1.15,2.8v12c0,1.1-.38,2.05-1.15,2.85-.8.77-1.75,1.15-2.85,1.15h-50.6c-1.1,0-2.03-.38-2.8-1.15-.8-.8-1.2-1.75-1.2-2.85v-12.05c0-1.1.4-2.03,1.2-2.8.77-.8,1.7-1.2,2.8-1.2h.05v-13.45h-13.5c0,1.1-.38,2.05-1.15,2.85-.8.77-1.75,1.15-2.85,1.15H4c-1.1,0-2.03-.38-2.8-1.15-.8-.8-1.2-1.75-1.2-2.85v-50.6c0-1.1.4-2.03,1.2-2.8.77-.8,1.7-1.2,2.8-1.2h12.05c1.1,0,2.05.4,2.85,1.2M16.05,37.5v-4.05H4v50.6h12v-4h21.5v21.45h-4.05v12.05h50.6v-12h-4v-21.5h21.45v4h12l.05-50.6h-12.05v4.05h-21.45v-21.45h4V4.05l-50.6-.05v12.05h4.05v21.45h-21.45" fill="#527914" stroke-width="0"/><path d="M16.05,37.5v8l-.05,26.55v12H4v-50.6h12.05v4.05M37.5,16.05h-4.05V4l50.6.05v12h-46.55M101.5,37.5v-4.05h12.05l-.05,50.6h-12v-46.55M80.05,101.55h4v12h-50.6v-12.05h12.05v.05h34.55" fill="#80be1f" stroke-width="0"/><path d="M16.05,37.5h21.45v4h-21.45v-4M80.05,37.5h21.45v4h-21.45v-4" fill="#b2f04f" stroke-width="0"/><path d="M80.05,37.5v4h21.45v4h-21.45c-2.2,0-4.08-.78-5.65-2.35-1.57-1.57-2.35-3.45-2.35-5.65v-21.45h8v21.45M37.5,37.5v-21.45h8v21.45c0,2.2-.78,4.08-2.35,5.65-1.57,1.57-3.45,2.35-5.65,2.35h-21.45v-4h21.45v-4M101.5,80.05h-21.45v21.5h-8v-21.5c0-2.2.78-4.08,2.35-5.65,1.57-1.57,3.45-2.35,5.65-2.35h21.45v8M37.5,101.5v-21.45h-21.5v-8h21.5c2.2,0,4.08.78,5.65,2.35,1.57,1.57,2.35,3.45,2.35,5.65v21.45h-8" fill="#a1e03d" stroke-width="0"/><path d="M16,72.05l.05-26.55h21.45c2.2,0,4.08-.78,5.65-2.35,1.57-1.57,2.35-3.45,2.35-5.65v-21.45h26.55v21.45c0,2.2.78,4.08,2.35,5.65,1.57,1.57,3.45,2.35,5.65,2.35h21.45v26.55h-21.45c-2.2,0-4.08.78-5.65,2.35-1.57,1.57-2.35,3.45-2.35,5.65v21.5h-26.55v-21.5c0-2.2-.78-4.08-2.35-5.65-1.57-1.57-3.45-2.35-5.65-2.35h-21.5M56.7,39.85c1.07,1.07,2.35,1.58,3.85,1.55,1.43.03,2.67-.47,3.7-1.5l.1-.1c1.07-1.07,1.6-2.33,1.6-3.8,0-1.47-.53-2.73-1.6-3.8s-2.33-1.62-3.8-1.65c-1.47,0-2.73.53-3.8,1.6l-.1.1c-1.03,1.07-1.53,2.3-1.5,3.7-.03,1.53.48,2.83,1.55,3.9M51.6,55.25c.57-.57.85-1.22.85-1.95,0-.77-.28-1.42-.85-1.95-.53-.53-1.17-.8-1.9-.8-.77-.03-1.43.23-2,.8-.53.53-.78,1.18-.75,1.95-.03.77.22,1.42.75,1.95.57.53,1.23.8,2,.8.73,0,1.37-.27,1.9-.8M61.65,68.35c1.07-1.07,1.6-2.33,1.6-3.8s-.53-2.73-1.6-3.8-2.33-1.62-3.8-1.65c-1.47,0-2.73.53-3.8,1.6l-.1.1c-1.03,1.07-1.53,2.3-1.5,3.7-.03,1.53.48,2.83,1.55,3.9,1.07,1.07,2.35,1.58,3.85,1.55,1.43.03,2.67-.47,3.7-1.5l.1-.1" fill="#1ea7e1" stroke-width="0"/><path d="M61.65,68.35l-.1.1c-1.03,1.03-2.27,1.53-3.7,1.5-1.5.03-2.78-.48-3.85-1.55-1.07-1.07-1.58-2.37-1.55-3.9-.03-1.4.47-2.63,1.5-3.7l.1-.1c1.07-1.07,2.33-1.6,3.8-1.6,1.47.03,2.73.58,3.8,1.65s1.6,2.33,1.6,3.8-.53,2.73-1.6,3.8M56.7,39.85c-1.07-1.07-1.58-2.37-1.55-3.9-.03-1.4.47-2.63,1.5-3.7l.1-.1c1.07-1.07,2.33-1.6,3.8-1.6,1.47.03,2.73.58,3.8,1.65s1.6,2.33,1.6,3.8c0,1.47-.53,2.73-1.6,3.8l-.1.1c-1.03,1.03-2.27,1.53-3.7,1.5-1.5.03-2.78-.48-3.85-1.55M51.6,55.25c-.53.53-1.17.8-1.9.8-.77,0-1.43-.27-2-.8-.53-.53-.78-1.18-.75-1.95-.03-.77.22-1.42.75-1.95.57-.57,1.23-.83,2-.8.73,0,1.37.27,1.9.8.57.53.85,1.18.85,1.95,0,.73-.28,1.38-.85,1.95" fill="#2cb8f3" stroke-width="0"/></g></svg>