<?xml version="1.0" encoding="UTF-8"?><svg id="Calque_2" xmlns="http://www.w3.org/2000/svg" viewBox="0 0 138 138"><g id="Calque_1-2"><path d="M15,20.45v-3.9c0-1.03.52-1.55,1.55-1.55h104.9c1.03,0,1.55.52,1.55,1.55v3.9c-.03-.97-.55-1.45-1.55-1.45H16.55c-1,0-1.52.48-1.55,1.45" fill="#e2e2e2" stroke-width="0"/><path d="M15,20.45c.03-.97.55-1.45,1.55-1.45h104.9c1,0,1.52.48,1.55,1.45v101.1c-.03.97-.55,1.45-1.55,1.45H16.55c-1,0-1.52-.48-1.55-1.45V20.45" fill="#fff" stroke-width="0"/><path d="M15,20.45v101.1c.03.97.55,1.45,1.55,1.45h104.9c1,0,1.52-.48,1.55-1.45V16.55c0-1.03-.52-1.55-1.55-1.55H16.55c-1.03,0-1.55.52-1.55,1.55v3.9M16.55,5h104.9c7.7,0,11.55,3.85,11.55,11.55v104.9c0,7.7-3.85,11.55-11.55,11.55H16.55c-7.7,0-11.55-3.85-11.55-11.55V16.55c0-7.7,3.85-11.55,11.55-11.55" fill="#fc0" stroke-width="0"/><path d="M16.55,5c-7.7,0-11.55,3.85-11.55,11.55v104.9c0,7.7,3.85,11.55,11.55,11.55h104.9c7.7,0,11.55-3.85,11.55-11.55V16.55c0-7.7-3.85-11.55-11.55-11.55H16.55M121.45,0c11.03,0,16.55,5.52,16.55,16.55v104.9c0,11.03-5.52,16.55-16.55,16.55H16.55c-11.03,0-16.55-5.52-16.55-16.55V16.55C0,5.52,5.52,0,16.55,0h104.9" fill="#9f8312" stroke-width="0"/></g></svg>