<?xml version="1.0" encoding="UTF-8"?><svg id="Calque_2" xmlns="http://www.w3.org/2000/svg" viewBox="0 0 87.9 88.05"><g id="Calque_1-2"><path d="M30.5,1.25c.77-.8,1.7-1.2,2.8-1.2h8l38.6-.05h4c1.1,0,2.05.4,2.85,1.2.77.77,1.15,1.7,1.15,2.8v12.05c0,1.1-.38,2.05-1.15,2.85-.77.73-1.68,1.12-2.75,1.15v1.85c-.87,39.93-20.3,60.65-58.3,62.15h-5.65c0,1.1-.38,2.05-1.15,2.85-.8.77-1.75,1.15-2.85,1.15H4c-1.1,0-2.03-.38-2.8-1.15s-1.2-1.75-1.2-2.85v-50.6c0-1.1.4-2.03,1.2-2.8.77-.8,1.7-1.2,2.8-1.2h12c1.1,0,2.05.4,2.85,1.2.73.73,1.12,1.62,1.15,2.65,2.07-.23,3.92-.65,5.55-1.25,4.7-1.97,7.28-5.97,7.75-12-1.1,0-2.03-.38-2.8-1.15s-1.2-1.75-1.2-2.85V4.05c0-1.1.4-2.03,1.2-2.8M80,16.05h3.9V4h-4l-38.6.05h-8v12h4v3.85c-.47,8.1-3.9,13.38-10.3,15.85-3,1.2-6.67,1.77-11,1.7v-4H4v50.6h12.05v-4h9.45c35.53-1.47,53.7-20.88,54.5-58.25v-5.75" fill="#527914" stroke-width="0"/><path d="M80,16.05h-46.7V4.05h8l38.6-.05h4v12.05h-3.9M16,41.45v4l.05,26.6v12H4v-50.6h12v8" fill="#80be1f" stroke-width="0"/><path d="M16,41.45c4.33.07,8-.5,11-1.7,6.4-2.47,9.83-7.75,10.3-15.85v-7.85h8v4.3c-.7,11.83-5.83,19.47-15.4,22.9l.1-.05c-3.73,1.53-8.27,2.28-13.6,2.25h-.4v-4M72,16.05h8v5.75c-.8,37.37-18.97,56.78-54.5,58.25h-9.45v-8h9.15c30.5-1.37,46.1-18.17,46.8-50.4v-5.6" fill="#a1e03d" stroke-width="0"/><path d="M37.3,19.9v4c-.47,8.1-3.9,13.38-10.3,15.85-3,1.2-6.67,1.77-11,1.7v-4c4.33.07,8-.5,11-1.7,6.4-2.47,9.83-7.75,10.3-15.85" fill="#b2f04f" stroke-width="0"/><path d="M45.3,16.05h26.7v5.6c-.7,32.23-16.3,49.03-46.8,50.4h-9.15l-.05-26.6h.4c5.33.03,9.87-.72,13.6-2.25l-.1.05c9.57-3.43,14.7-11.07,15.4-22.9v-4.3M52.95,34.15c-1.03,1.07-1.55,2.35-1.55,3.85v.15c.03,1.43.55,2.65,1.55,3.65,1.07,1.07,2.35,1.6,3.85,1.6s2.77-.53,3.8-1.6c1.03-1,1.57-2.22,1.6-3.65v-.15c0-1.5-.53-2.78-1.6-3.85-1.03-1.03-2.3-1.55-3.8-1.55s-2.78.52-3.85,1.55M25.4,55.15c.03,1.43.55,2.65,1.55,3.65,1.07,1.07,2.35,1.6,3.85,1.6s2.77-.53,3.8-1.6c1.03-1,1.57-2.22,1.6-3.65v-.15c0-1.5-.53-2.78-1.6-3.85-1.03-1.03-2.3-1.55-3.8-1.55s-2.78.52-3.85,1.55c-1.03,1.07-1.55,2.35-1.55,3.85v.15M40.7,55.9c-.53.53-.8,1.18-.8,1.95s.27,1.42.8,1.95c.53.53,1.18.8,1.95.8s1.42-.27,1.95-.8c.53-.53.8-1.18.8-1.95s-.27-1.42-.8-1.95c-.53-.53-1.18-.8-1.95-.8s-1.42.27-1.95.8" fill="#1ea7e1" stroke-width="0"/><path d="M40.7,55.9c.53-.53,1.18-.8,1.95-.8s1.42.27,1.95.8c.53.53.8,1.18.8,1.95s-.27,1.42-.8,1.95c-.53.53-1.18.8-1.95.8s-1.42-.27-1.95-.8c-.53-.53-.8-1.18-.8-1.95s.27-1.42.8-1.95M52.95,34.15c1.07-1.03,2.35-1.55,3.85-1.55s2.77.52,3.8,1.55c1.07,1.07,1.6,2.35,1.6,3.85v.15c-.03,1.43-.57,2.65-1.6,3.65-1.03,1.07-2.3,1.6-3.8,1.6s-2.78-.53-3.85-1.6c-1-1-1.52-2.22-1.55-3.65v-.15c0-1.5.52-2.78,1.55-3.85M25.4,55.15v-.15c0-1.5.52-2.78,1.55-3.85,1.07-1.03,2.35-1.55,3.85-1.55s2.77.52,3.8,1.55c1.07,1.07,1.6,2.35,1.6,3.85v.15c-.03,1.43-.57,2.65-1.6,3.65-1.03,1.07-2.3,1.6-3.8,1.6s-2.78-.53-3.85-1.6c-1-1-1.52-2.22-1.55-3.65" fill="#2cb8f3" stroke-width="0"/></g></svg>