<?xml version="1.0" encoding="UTF-8"?><svg id="Calque_2" xmlns="http://www.w3.org/2000/svg" viewBox="0 0 88.05 87.9"><g id="Calque_1-2"><path d="M50.6,17.7v-1.7h4V4H4v12.05h4v9.45c1.47,35.53,20.88,53.7,58.25,54.5h5.75v3.9h12.05v-4l-.05-38.6v-8h-12v4h-3.85c-8.1-.47-13.38-3.9-15.85-10.3-1.03-2.6-1.6-5.7-1.7-9.3M57.45,1.2c.77.77,1.15,1.7,1.15,2.8v12c0,1.1-.38,2.05-1.15,2.85-.77.73-1.67,1.12-2.7,1.15.23,2.07.67,3.92,1.3,5.55,1.93,4.7,5.92,7.28,11.95,7.75,0-1.1.4-2.03,1.2-2.8.77-.8,1.7-1.2,2.8-1.2h12c1.1,0,2.05.4,2.85,1.2.77.77,1.15,1.7,1.15,2.8v8l.05,38.6v4c0,1.1-.38,2.05-1.15,2.85-.8.77-1.75,1.15-2.85,1.15h-12.05c-1.1,0-2.03-.38-2.8-1.15-.77-.77-1.17-1.68-1.2-2.75h-1.8c-39.97-.87-60.7-20.3-62.2-58.3v-5.65c-1.1,0-2.03-.38-2.8-1.15-.8-.8-1.2-1.75-1.2-2.85V4C0,2.9.4,1.97,1.2,1.2c.77-.8,1.7-1.2,2.8-1.2h50.6c1.1,0,2.05.4,2.85,1.2" fill="#527914" stroke-width="0"/><path d="M50.6,16v4c-.07,4.33.5,8,1.7,11,2.47,6.4,7.75,9.83,15.85,10.3h3.85v4h-4.3c-11.83-.7-19.45-5.83-22.85-15.4l.05.05c-1.13-2.7-1.85-5.82-2.15-9.35l-.15-2.65v-1.95h8M72,80h-5.75c-37.37-.8-56.78-18.97-58.25-54.5v-9.45h8v9.15c1.37,30.5,18.18,46.1,50.45,46.8h5.55v8" fill="#a1e03d" stroke-width="0"/><path d="M72,80v-46.7h12v8l.05,38.6v4h-12.05v-3.9M8,16.05h-4V4h50.6v12h-12l-24.9.05h-9.7" fill="#80be1f" stroke-width="0"/><path d="M50.6,17.7c.1,3.6.67,6.7,1.7,9.3,2.47,6.4,7.75,9.83,15.85,10.3h3.85v4h-3.85c-8.1-.47-13.38-3.9-15.85-10.3-1.2-3-1.77-6.67-1.7-11v-2.3" fill="#b2f04f" stroke-width="0"/><path d="M42.6,16v1.95l.15,2.65c.3,3.53,1.02,6.65,2.15,9.35l-.05-.05c3.4,9.57,11.02,14.7,22.85,15.4h4.3v26.7h-5.55c-32.27-.7-49.08-16.3-50.45-46.8v-9.15h1.7l24.9-.05M52.15,51.05c-1.03-1.03-2.3-1.55-3.8-1.55s-2.78.52-3.85,1.55c-1.03,1.07-1.55,2.35-1.55,3.85v.15c.03,1.43.55,2.65,1.55,3.65,1.07,1.07,2.35,1.6,3.85,1.6s2.77-.53,3.8-1.6c1.03-1,1.57-2.22,1.6-3.65v-.15c0-1.5-.53-2.78-1.6-3.85M39.45,51.75c0-.77-.27-1.42-.8-1.95-.53-.53-1.18-.8-1.95-.8s-1.42.27-1.95.8c-.53.53-.8,1.18-.8,1.95s.27,1.42.8,1.95c.53.53,1.18.8,1.95.8s1.42-.27,1.95-.8c.53-.53.8-1.18.8-1.95M23.3,39.25c.23.97.73,1.83,1.5,2.6,1.1,1.1,2.43,1.65,4,1.65s2.9-.55,4-1.65c.77-.77,1.27-1.63,1.5-2.6l.15-1.4c0-1.57-.55-2.9-1.65-4s-2.43-1.65-4-1.65c-1.57,0-2.9.55-4,1.65s-1.65,2.43-1.65,4l.15,1.4" fill="#1ea7e1" stroke-width="0"/><path d="M23.3,39.25l-.15-1.4c0-1.57.55-2.9,1.65-4s2.43-1.65,4-1.65c1.57,0,2.9.55,4,1.65s1.65,2.43,1.65,4l-.15,1.4c-.23.97-.73,1.83-1.5,2.6-1.1,1.1-2.43,1.65-4,1.65s-2.9-.55-4-1.65c-.77-.77-1.27-1.63-1.5-2.6M52.15,51.05c1.07,1.07,1.6,2.35,1.6,3.85v.15c-.03,1.43-.57,2.65-1.6,3.65-1.03,1.07-2.3,1.6-3.8,1.6s-2.78-.53-3.85-1.6c-1-1-1.52-2.22-1.55-3.65v-.15c0-1.5.52-2.78,1.55-3.85,1.07-1.03,2.35-1.55,3.85-1.55s2.77.52,3.8,1.55M39.45,51.75c0,.77-.27,1.42-.8,1.95-.53.53-1.18.8-1.95.8s-1.42-.27-1.95-.8c-.53-.53-.8-1.18-.8-1.95s.27-1.42.8-1.95c.53-.53,1.18-.8,1.95-.8s1.42.27,1.95.8c.53.53.8,1.18.8,1.95" fill="#2cb8f3" stroke-width="0"/></g></svg>