<?xml version="1.0" encoding="UTF-8"?><svg id="Calque_2" xmlns="http://www.w3.org/2000/svg" viewBox="0 0 88.05 117.55"><g id="Calque_1-2"><path d="M4,0l50.6.05c1.1,0,2.05.4,2.85,1.2.77.77,1.15,1.7,1.15,2.8v12c0,1.1-.38,2.05-1.15,2.85-.8.77-1.75,1.15-2.85,1.15v14.4l11.55-.9h1.85c.03-1.07.43-1.97,1.2-2.7.77-.8,1.7-1.2,2.8-1.2h12.05c1.1,0,2.05.4,2.85,1.2.77.77,1.15,1.7,1.15,2.8v4l-.05,38.6v8c0,1.1-.38,2.05-1.15,2.85-.8.77-1.75,1.15-2.85,1.15h-12c-1.1,0-2.03-.38-2.8-1.15-.8-.8-1.2-1.73-1.2-2.8-6.03.43-10.02,3-11.95,7.7v.05c-.63,1.6-1.07,3.43-1.3,5.5,1.03.03,1.93.43,2.7,1.2.77.77,1.15,1.7,1.15,2.8v12c0,1.1-.38,2.05-1.15,2.85-.8.77-1.75,1.15-2.85,1.15H4c-1.1,0-2.03-.38-2.8-1.15s-1.2-1.75-1.2-2.85v-12.05c0-1.1.4-2.03,1.2-2.8.77-.8,1.7-1.2,2.8-1.2v-5.45l.05-1.15V20.05h-.05c-1.1,0-2.03-.38-2.8-1.15-.8-.8-1.2-1.75-1.2-2.85V4C0,2.9.4,1.97,1.2,1.2,1.97.4,2.9,0,4,0M50.6,16.05h4V4.05l-50.6-.05v12.05h4.05v74.95l-.05,1.05v9.45h-4v12.05h50.6v-12h-4v-1.7c.1-3.6.67-6.7,1.7-9.3,2.47-6.4,7.75-9.83,15.85-10.3h3.85v4h12v-8l.05-38.6v-4h-12.05v3.9h-5.75c-5.63.13-10.85.65-15.65,1.55v-23.05" fill="#527914" stroke-width="0"/><path d="M50.6,16.05H4V4l50.6.05v12h-4M72,37.55v-3.9h12.05v4l-.05,38.6v8h-12v-46.7M50.6,101.55h4v12H4v-12.05h12l24.95.05h9.65" fill="#80be1f" stroke-width="0"/><path d="M50.6,39.1c4.8-.9,10.02-1.42,15.65-1.55h5.75v4h-5.75c-5.63.13-10.85.65-15.65,1.55v-4M8,95.55v-3.5l.05-1.05v4l-.05.55" fill="#b2f04f" stroke-width="0"/><path d="M8,95.55l.05-.55V16.05h8v74.95l-.05.8v9.7h-8v-5.95M42.6,16.05h8v27.05c4.8-.9,10.02-1.42,15.65-1.55h5.75v4h-5.75c-5.1.13-9.82.62-14.15,1.45-1.6.27-3.13.1-4.6-.5-1.47-.63-2.65-1.62-3.55-2.95-.9-1.37-1.35-2.85-1.35-4.45v-23.05M72,80.25h-3.85c-8.1.47-13.38,3.9-15.85,10.3-1.03,2.6-1.6,5.7-1.7,9.3v1.7h-8v-1.9c.13-4.67.9-8.68,2.3-12.05l-.05.1c3.4-9.6,11.02-14.73,22.85-15.4l.45-.05h3.85v8" fill="#a1e03d" stroke-width="0"/><path d="M16.05,16.05h26.55v23.05c0,1.6.45,3.08,1.35,4.45.9,1.33,2.08,2.32,3.55,2.95,1.47.6,3,.77,4.6.5,4.33-.83,9.05-1.32,14.15-1.45h5.75v26.7h-3.85l-.45.05c-11.83.67-19.45,5.8-22.85,15.4l.05-.1c-1.4,3.37-2.17,7.38-2.3,12.05v1.9h-1.65l-24.95-.05v-9.7l.05-.8V16.05M44.7,49.55c-.77,0-1.42.27-1.95.8-.53.53-.8,1.18-.8,1.95s.27,1.42.8,1.95,1.18.8,1.95.8,1.42-.27,1.95-.8.8-1.18.8-1.95-.27-1.42-.8-1.95c-.53-.53-1.18-.8-1.95-.8M21.95,82.1c.03,1.43.55,2.65,1.55,3.65,1.07,1.07,2.35,1.6,3.85,1.6s2.77-.53,3.8-1.6c1.03-1,1.57-2.22,1.6-3.65v-.15c0-1.5-.53-2.78-1.6-3.85-1.03-1.03-2.3-1.55-3.8-1.55s-2.78.52-3.85,1.55c-1.03,1.07-1.55,2.35-1.55,3.85v.15M38.25,49.45c0-1.5-.53-2.78-1.6-3.85-1.03-1.03-2.3-1.55-3.8-1.55s-2.78.52-3.85,1.55c-1.03,1.07-1.55,2.35-1.55,3.85v.15c.03,1.43.55,2.65,1.55,3.65,1.07,1.07,2.35,1.6,3.85,1.6s2.77-.53,3.8-1.6c1.03-1,1.57-2.22,1.6-3.65v-.15" fill="#1ea7e1" stroke-width="0"/><path d="M38.25,49.45v.15c-.03,1.43-.57,2.65-1.6,3.65-1.03,1.07-2.3,1.6-3.8,1.6s-2.78-.53-3.85-1.6c-1-1-1.52-2.22-1.55-3.65v-.15c0-1.5.52-2.78,1.55-3.85,1.07-1.03,2.35-1.55,3.85-1.55s2.77.52,3.8,1.55c1.07,1.07,1.6,2.35,1.6,3.85M44.7,49.55c.77,0,1.42.27,1.95.8.53.53.8,1.18.8,1.95s-.27,1.42-.8,1.95-1.18.8-1.95.8-1.42-.27-1.95-.8-.8-1.18-.8-1.95.27-1.42.8-1.95c.53-.53,1.18-.8,1.95-.8M21.95,82.1v-.15c0-1.5.52-2.78,1.55-3.85,1.07-1.03,2.35-1.55,3.85-1.55s2.77.52,3.8,1.55c1.07,1.07,1.6,2.35,1.6,3.85v.15c-.03,1.43-.57,2.65-1.6,3.65-1.03,1.07-2.3,1.6-3.8,1.6s-2.78-.53-3.85-1.6c-1-1-1.52-2.22-1.55-3.65" fill="#2cb8f3" stroke-width="0"/></g></svg>