<?xml version="1.0" encoding="UTF-8"?><svg id="Calque_2" xmlns="http://www.w3.org/2000/svg" viewBox="0 0 87.9 88.05"><g id="Calque_1-2"><path d="M25.5,4h.2c38,1.5,57.43,22.23,58.3,62.2v1.8c1.07.03,1.98.43,2.75,1.2.77.77,1.15,1.7,1.15,2.8v12.05c0,1.1-.38,2.05-1.15,2.85-.8.77-1.75,1.15-2.85,1.15h-4l-38.6-.05h-8c-1.1,0-2.03-.38-2.8-1.15s-1.2-1.75-1.2-2.85v-12c0-1.1.4-2.03,1.2-2.8.77-.8,1.7-1.2,2.8-1.2-.47-6.03-3.05-10.02-7.75-11.95-1.63-.63-3.48-1.07-5.55-1.3-.03,1.03-.42,1.93-1.15,2.7-.8.77-1.75,1.15-2.85,1.15H4c-1.1,0-2.03-.38-2.8-1.15-.8-.8-1.2-1.75-1.2-2.85V4C0,2.9.4,1.97,1.2,1.2,1.97.4,2.9,0,4,0h12.05c1.1,0,2.05.4,2.85,1.2.77.77,1.15,1.7,1.15,2.8h5.45M16.05,8v-4H4v50.6h12v-4c4.33-.07,8,.5,11,1.7,6.4,2.47,9.83,7.75,10.3,15.85v3.85h-4v12h8l38.6.05h4v-12.05h-3.9v-5.75c-.8-37.37-18.97-56.78-54.5-58.25h-9.45" fill="#527914" stroke-width="0"/><path d="M16.05,8v34.6l-.05,8v4H4V4h12.05v4M72,72h11.9v12.05h-4l-38.6-.05h-8v-12h38.7" fill="#80be1f" stroke-width="0"/><path d="M16.05,12v-4h9.45c35.53,1.47,53.7,20.88,54.5,58.25v4c-.8-37.37-18.97-56.78-54.5-58.25h-9.45" fill="#b2f04f" stroke-width="0"/><path d="M16.05,12h9.45c35.53,1.47,53.7,20.88,54.5,58.25v1.75h-8v-5.75c-.73-32.13-16.33-48.88-46.8-50.25h-9.15v-4M16,50.6l.05-8h1.15c5,.03,9.27.8,12.8,2.3l-.1-.05c9.57,3.4,14.7,11.02,15.4,22.85v4.3h-8v-3.85c-.47-8.1-3.9-13.38-10.3-15.85-3-1.2-6.67-1.77-11-1.7" fill="#a1e03d" stroke-width="0"/><path d="M16.05,42.6v-26.6h9.15c30.47,1.37,46.07,18.12,46.8,50.25v5.75h-26.7v-4.3c-.7-11.83-5.83-19.45-15.4-22.85l.1.05c-3.53-1.5-7.8-2.27-12.8-2.3h-1.15M49.4,36.3c0,.77.27,1.42.8,1.95.53.53,1.18.8,1.95.8s1.42-.27,1.95-.8c.53-.53.8-1.18.8-1.95s-.27-1.42-.8-1.95c-.53-.53-1.18-.8-1.95-.8s-1.42.27-1.95.8c-.53.53-.8,1.18-.8,1.95M35.45,32.55c-1.03,1.07-1.55,2.35-1.55,3.85v.15c.03,1.43.55,2.65,1.55,3.65,1.07,1.07,2.35,1.6,3.85,1.6,1.17,0,2.2-.32,3.1-.95l.7-.65c1.03-1,1.57-2.22,1.6-3.65v-.15c0-1.5-.53-2.78-1.6-3.85l-.7-.6c-.9-.63-1.93-.95-3.1-.95-1.5,0-2.78.52-3.85,1.55" fill="#1ea7e1" stroke-width="0"/><path d="M35.45,32.55c1.07-1.03,2.35-1.55,3.85-1.55,1.17,0,2.2.32,3.1.95l.7.6c1.07,1.07,1.6,2.35,1.6,3.85v.15c-.03,1.43-.57,2.65-1.6,3.65l-.7.65c-.9.63-1.93.95-3.1.95-1.5,0-2.78-.53-3.85-1.6-1-1-1.52-2.22-1.55-3.65v-.15c0-1.5.52-2.78,1.55-3.85M49.4,36.3c0-.77.27-1.42.8-1.95.53-.53,1.18-.8,1.95-.8s1.42.27,1.95.8c.53.53.8,1.18.8,1.95s-.27,1.42-.8,1.95c-.53.53-1.18.8-1.95.8s-1.42-.27-1.95-.8c-.53-.53-.8-1.18-.8-1.95" fill="#2cb8f3" stroke-width="0"/></g></svg>