<?xml version="1.0" encoding="UTF-8"?><svg id="Calque_2" xmlns="http://www.w3.org/2000/svg" viewBox="0 0 87.9 117.55"><g id="Calque_1-2"><path d="M87.9,4.05v12c0,1.1-.38,2.05-1.15,2.85-.8.77-1.75,1.15-2.85,1.15v72.65l.1,2.95v1.85c1.07.03,1.98.43,2.75,1.2s1.15,1.7,1.15,2.8v12.05c0,1.1-.38,2.05-1.15,2.85-.8.77-1.75,1.15-2.85,1.15h-50.6c-1.1,0-2.03-.38-2.8-1.15-.8-.8-1.2-1.75-1.2-2.85v-12.05c0-1.1.4-2.03,1.2-2.8.77-.8,1.7-1.2,2.8-1.2-.47-6.03-3.05-10.02-7.75-11.95-1.63-.63-3.48-1.07-5.55-1.3-.03,1.03-.42,1.93-1.15,2.7-.8.77-1.75,1.15-2.85,1.15H4c-1.1,0-2.03-.38-2.8-1.15-.8-.8-1.2-1.75-1.2-2.85v-50.6c0-1.1.4-2.03,1.2-2.8.77-.8,1.7-1.2,2.8-1.2h12.05c1.1,0,2.05.4,2.85,1.2.77.77,1.15,1.7,1.15,2.8h5.6l7.7.65v-14.1h-.05c-1.1,0-2.03-.38-2.8-1.15-.8-.8-1.2-1.75-1.2-2.85V4c0-1.1.4-2.03,1.2-2.8C31.27.4,32.2,0,33.3,0l50.6.05c1.1,0,2.05.4,2.85,1.2.77.77,1.15,1.7,1.15,2.8M79.9,16.05h4V4.05l-50.6-.05v12.05h4.05v22.75l-11.85-1.3h-9.45v-4H4v50.6h12v-4c4.33-.07,8,.5,11,1.7,6.4,2.47,9.83,7.75,10.3,15.85v3.85h-4v12.05h50.6v-12.05h-3.9v-5.75l-.1-2.9V16.05" fill="#527914" stroke-width="0"/><path d="M63.85,29.6c.57-.57.85-1.22.85-1.95s-.28-1.42-.85-1.95c-.53-.53-1.17-.8-1.9-.8-.77-.03-1.43.23-2,.8-.53.53-.78,1.18-.75,1.95-.03.77.22,1.42.75,1.95.57.53,1.23.8,2,.8s1.37-.27,1.9-.8M45.35,16.05h26.55v77.1l.1,2.9v5.5h-26.7v-4.35c-.7-11.83-5.83-19.45-15.4-22.85l.1.05c-3.83-1.63-8.5-2.4-14-2.3l.05-26.6h9.15l10.7,1.15c1.57.3,3.08.15,4.55-.45,1.47-.63,2.65-1.62,3.55-2.95.9-1.37,1.35-2.85,1.35-4.45v-22.75M48.05,47.85l-.9,1.15c-.5.83-.77,1.8-.8,2.9,0,1.53.57,2.85,1.7,3.95,1.1,1.13,2.42,1.7,3.95,1.7,1.1-.03,2.07-.3,2.9-.8l1.15-.9c1.1-1.1,1.63-2.42,1.6-3.95.03-1.57-.5-2.92-1.6-4.05-1.13-1.1-2.48-1.63-4.05-1.6-1.53-.03-2.85.5-3.95,1.6M49.7,65.35c-.53-.53-1.17-.8-1.9-.8-.77-.03-1.43.23-2,.8-.53.53-.78,1.18-.75,1.95-.03.77.22,1.42.75,1.95.57.53,1.23.8,2,.8s1.37-.27,1.9-.8c.57-.57.85-1.22.85-1.95s-.28-1.42-.85-1.95M57.6,73.95c-1.07-1.07-2.33-1.62-3.8-1.65-1.47,0-2.73.53-3.8,1.6l-.1.1c-1.03,1.07-1.53,2.3-1.5,3.7-.03,1.53.48,2.83,1.55,3.9,1.07,1.07,2.35,1.58,3.85,1.55,1.43.03,2.67-.47,3.7-1.5l.1-.1c1.07-1.07,1.6-2.33,1.6-3.8s-.53-2.73-1.6-3.8" fill="#1ea7e1" stroke-width="0"/><path d="M57.6,73.95c1.07,1.07,1.6,2.33,1.6,3.8s-.53,2.73-1.6,3.8l-.1.1c-1.03,1.03-2.27,1.53-3.7,1.5-1.5.03-2.78-.48-3.85-1.55-1.07-1.07-1.58-2.37-1.55-3.9-.03-1.4.47-2.63,1.5-3.7l.1-.1c1.07-1.07,2.33-1.6,3.8-1.6,1.47.03,2.73.58,3.8,1.65M63.85,29.6c-.53.53-1.17.8-1.9.8s-1.43-.27-2-.8c-.53-.53-.78-1.18-.75-1.95-.03-.77.22-1.42.75-1.95.57-.57,1.23-.83,2-.8.73,0,1.37.27,1.9.8.57.53.85,1.18.85,1.95s-.28,1.38-.85,1.95M48.05,47.85c1.1-1.1,2.42-1.63,3.95-1.6,1.57-.03,2.92.5,4.05,1.6,1.1,1.13,1.63,2.48,1.6,4.05.03,1.53-.5,2.85-1.6,3.95l-1.15.9c-.83.5-1.8.77-2.9.8-1.53,0-2.85-.57-3.95-1.7-1.13-1.1-1.7-2.42-1.7-3.95.03-1.1.3-2.07.8-2.9l.9-1.15M49.7,65.35c.57.53.85,1.18.85,1.95s-.28,1.38-.85,1.95c-.53.53-1.17.8-1.9.8s-1.43-.27-2-.8c-.53-.53-.78-1.18-.75-1.95-.03-.77.22-1.42.75-1.95.57-.57,1.23-.83,2-.8.73,0,1.37.27,1.9.8" fill="#2cb8f3" stroke-width="0"/><path d="M79.9,16.05h-46.6V4l50.6.05v12h-4M72,101.55h7.9v-.05h4v12.05h-50.6v-12.05h12v.05h26.7M16,72.1v12H4v-50.6h12.05v12l-.05,26.6" fill="#80be1f" stroke-width="0"/><path d="M71.9,16.05h8v80.8l.1,2.9v1.75h-.1v.05h-7.9v-5.5l-.1-2.9V16.05M37.35,16.05h8v22.75c0,1.6-.45,3.08-1.35,4.45-.9,1.33-2.08,2.32-3.55,2.95-1.47.6-2.98.75-4.55.45l-10.7-1.15h-9.15v-4h9.45l11.85,1.3v-26.75M16,72.1c5.5-.1,10.17.67,14,2.3l-.1-.05c9.57,3.4,14.7,11.02,15.4,22.85v4.3h-8v-3.85c-.47-8.1-3.9-13.38-10.3-15.85-3-1.2-6.67-1.77-11-1.7v-8" fill="#a1e03d" stroke-width="0"/><path d="M80,99.75l-.1-2.9v-4l.1,2.9v4M16.05,41.5v-4h9.45l11.85,1.3v4l-11.85-1.3h-9.45" fill="#b2f04f" stroke-width="0"/></g></svg>